<svg width="25" height="26" viewBox="0 0 25 26" fill="none" xmlns="http://www.w3.org/2000/svg">
<path fill-rule="evenodd" clip-rule="evenodd" d="M5.5146 17.1836L6.6946 16.0016C7.0726 15.6236 7.2806 15.1216 7.2806 14.5876V9.91061C7.2806 8.55361 7.8706 7.25661 8.9006 6.35461C9.9386 5.44461 11.2606 5.04461 12.6376 5.22561C14.9646 5.53461 16.7196 7.63861 16.7196 10.1206V14.5876C16.7196 15.1216 16.9276 15.6236 17.3046 16.0006L18.4856 17.1836H5.5146ZM13.9996 19.5246C13.9996 20.4236 13.0836 21.1836 11.9996 21.1836C10.9156 21.1836 9.9996 20.4236 9.9996 19.5246V19.1836H13.9996V19.5246ZM20.5206 16.3916L18.7196 14.5876V10.1206C18.7196 6.63961 16.2176 3.68261 12.8996 3.24361C10.9776 2.98761 9.0376 3.57461 7.5826 4.85061C6.1186 6.13261 5.2806 7.97661 5.2806 9.91061L5.2796 14.5876L3.4786 16.3916C3.0096 16.8616 2.8706 17.5606 3.1246 18.1736C3.3796 18.7876 3.9726 19.1836 4.6366 19.1836H7.9996V19.5246C7.9996 21.5426 9.7936 23.1836 11.9996 23.1836C14.2056 23.1836 15.9996 21.5426 15.9996 19.5246V19.1836H19.3626C20.0266 19.1836 20.6186 18.7876 20.8726 18.1746C21.1276 17.5606 20.9896 16.8606 20.5206 16.3916Z" fill="#768298"/>
<rect x="12.5" y="0.683594" width="12" height="12" rx="6" fill="#FF3332"/>
<path d="M18.4383 9.75559C18.1343 9.75559 17.8596 9.71026 17.6143 9.61959C17.3743 9.52893 17.169 9.40626 16.9983 9.25159C16.8276 9.09159 16.6943 8.90493 16.5983 8.69159C16.5023 8.47826 16.449 8.24626 16.4383 7.99559H17.0783C17.0943 8.16626 17.1316 8.32626 17.1903 8.47559C17.2543 8.61959 17.3423 8.74493 17.4543 8.85159C17.5663 8.95826 17.705 9.04359 17.8703 9.10759C18.0356 9.16626 18.2303 9.19559 18.4543 9.19559C18.9076 9.19559 19.2383 9.09693 19.4463 8.89959C19.6543 8.69693 19.7583 8.42759 19.7583 8.09159C19.7583 7.35026 19.3556 6.97959 18.5503 6.97959H18.1183V6.39559H18.5183C18.8916 6.39559 19.1636 6.31293 19.3343 6.14759C19.505 5.97693 19.5903 5.73426 19.5903 5.41959C19.5903 5.14759 19.505 4.92093 19.3343 4.73959C19.1636 4.55293 18.9023 4.45959 18.5503 4.45959C18.193 4.45959 17.9023 4.55826 17.6783 4.75559C17.4543 4.95293 17.3236 5.21426 17.2863 5.53959H16.6783C16.689 5.31559 16.7396 5.10493 16.8303 4.90759C16.9263 4.70493 17.057 4.52893 17.2223 4.37959C17.3876 4.23026 17.5823 4.11293 17.8063 4.02759C18.0303 3.93693 18.2783 3.89159 18.5503 3.89159C18.8223 3.89159 19.065 3.93426 19.2783 4.01959C19.4916 4.09959 19.6703 4.21159 19.8143 4.35559C19.9636 4.49426 20.0756 4.65426 20.1503 4.83559C20.2303 5.01693 20.2703 5.20626 20.2703 5.40359C20.2703 5.72893 20.185 5.99293 20.0143 6.19559C19.8436 6.39293 19.6276 6.54493 19.3663 6.65159C19.7023 6.74226 19.969 6.90493 20.1663 7.13959C20.369 7.37426 20.4703 7.69159 20.4703 8.09159C20.4703 8.35293 20.4196 8.58759 20.3183 8.79559C20.217 8.99826 20.0756 9.17159 19.8943 9.31559C19.7183 9.45959 19.505 9.56893 19.2543 9.64359C19.0036 9.71826 18.7316 9.75559 18.4383 9.75559Z" fill="white"/>
<rect x="12.5" y="0.683594" width="12" height="12" rx="6" stroke="white"/>
</svg>
